<svg id="Groupe_40" data-name="Groupe 40" xmlns="http://www.w3.org/2000/svg" xmlns:xlink="http://www.w3.org/1999/xlink" width="453" height="37" viewBox="0 0 453 37">
  <defs>
    <clipPath id="clip-path">
      <rect id="Rectangle_76" data-name="Rectangle 76" width="453" height="37" fill="none"/>
    </clipPath>
  </defs>
  <g id="Groupe_39" data-name="Groupe 39" clip-path="url(#clip-path)">
    <path id="Tracé_100" data-name="Tracé 100" d="M18.5,0h64a18.5,18.5,0,0,1,0,37h-64a18.5,18.5,0,0,1,0-37" fill="#fff"/>
    <path id="Tracé_101" data-name="Tracé 101" d="M18.5.5h64a18,18,0,0,1,0,36h-64a18,18,0,0,1,0-36Z" fill="none" stroke="#dbdbdb" stroke-width="1"/>
    <path id="Tracé_102" data-name="Tracé 102" d="M138.5,0h64a18.5,18.5,0,0,1,0,37h-64a18.5,18.5,0,0,1,0-37" fill="#fff"/>
    <path id="Tracé_103" data-name="Tracé 103" d="M138.5.5h64a18,18,0,0,1,0,36h-64a18,18,0,0,1,0-36Z" fill="none" stroke="#dbdbdb" stroke-width="1"/>
    <path id="Tracé_104" data-name="Tracé 104" d="M258.5,0h64a18.5,18.5,0,0,1,0,37h-64a18.5,18.5,0,0,1,0-37" fill="#fff"/>
    <path id="Tracé_105" data-name="Tracé 105" d="M258.5.5h64a18,18,0,0,1,0,36h-64a18,18,0,0,1,0-36Z" fill="none" stroke="#dbdbdb" stroke-width="1"/>
    <path id="Tracé_106" data-name="Tracé 106" d="M370.5,0h64a18.5,18.5,0,0,1,0,37h-64a18.5,18.5,0,0,1,0-37" fill="#fff"/>
    <path id="Tracé_107" data-name="Tracé 107" d="M370.5.5h64a18,18,0,0,1,0,36h-64a18,18,0,0,1,0-36Z" fill="none" stroke="#dbdbdb" stroke-width="1"/>
    <path id="Tracé_108" data-name="Tracé 108" d="M39.18,21.33H37.335L36.72,24H35.055l.615-2.67H33.42L32.805,24H31.14l.615-2.67H29.94l.36-1.515h1.8l.48-2.085H30.765l.345-1.516h1.83l.63-2.714h1.665l-.63,2.714h2.25l.63-2.714H39.15l-.63,2.714h1.845L40.02,17.73H38.16l-.465,2.085h1.86Zm-3.15-1.515.465-2.085h-2.25l-.48,2.085Z" fill="#0b1138"/>
    <path id="Tracé_109" data-name="Tracé 109" d="M43.215,23.7a4.905,4.905,0,0,1-1.5-.976l.9-1.619a4.978,4.978,0,0,0,1.23.765,3.71,3.71,0,0,0,1.485.285,2,2,0,0,0,1.275-.323.959.959,0,0,0,.39-.757,1.143,1.143,0,0,0-.15-.615,1.4,1.4,0,0,0-.54-.45,7.154,7.154,0,0,0-1.14-.451l-.78-.239a5.544,5.544,0,0,1-2.047-1.11,2.622,2.622,0,0,1-.758-2.04,3.236,3.236,0,0,1,.5-1.808,3.283,3.283,0,0,1,1.4-1.192,4.881,4.881,0,0,1,2.085-.42,5.191,5.191,0,0,1,1.935.383,4.686,4.686,0,0,1,1.5.892L47.97,15.69a5.388,5.388,0,0,0-1.14-.7,3.127,3.127,0,0,0-1.29-.255,1.618,1.618,0,0,0-1.117.323,1.009,1.009,0,0,0-.353.772,1.1,1.1,0,0,0,.1.487,1.05,1.05,0,0,0,.412.4,4.766,4.766,0,0,0,.945.405l.795.255a5.959,5.959,0,0,1,2.31,1.268,3.2,3.2,0,0,1,.4,3.832,3.3,3.3,0,0,1-1.372,1.214,4.843,4.843,0,0,1-2.22.466,5.305,5.305,0,0,1-2.22-.45" fill="#0b1138"/>
    <path id="Tracé_110" data-name="Tracé 110" d="M52.455,23.7a4.9,4.9,0,0,1-1.5-.976l.9-1.619a4.978,4.978,0,0,0,1.23.765,3.71,3.71,0,0,0,1.485.285,2,2,0,0,0,1.275-.323.959.959,0,0,0,.39-.757,1.143,1.143,0,0,0-.15-.615,1.4,1.4,0,0,0-.54-.45,7.154,7.154,0,0,0-1.14-.451l-.78-.239a5.544,5.544,0,0,1-2.047-1.11,2.622,2.622,0,0,1-.758-2.04,3.236,3.236,0,0,1,.5-1.808,3.283,3.283,0,0,1,1.4-1.192,4.881,4.881,0,0,1,2.085-.42,5.191,5.191,0,0,1,1.935.383,4.686,4.686,0,0,1,1.5.892L57.21,15.69a5.388,5.388,0,0,0-1.14-.7,3.127,3.127,0,0,0-1.29-.255,1.618,1.618,0,0,0-1.117.323,1.009,1.009,0,0,0-.353.772,1.1,1.1,0,0,0,.1.487,1.05,1.05,0,0,0,.412.4,4.766,4.766,0,0,0,.945.405l.8.255a5.959,5.959,0,0,1,2.31,1.268,3.2,3.2,0,0,1,.4,3.832A3.3,3.3,0,0,1,56.9,23.684a4.843,4.843,0,0,1-2.22.466,5.305,5.305,0,0,1-2.22-.45" fill="#0b1138"/>
    <path id="Tracé_111" data-name="Tracé 111" d="M68.895,19.335h-5.88V24H60.6V12.9h2.415v4.44h5.88V12.9h2.4V24h-2.4Z" fill="#0b1138"/>
    <path id="Tracé_112" data-name="Tracé 112" d="M156.33,21.33h-1.844L153.87,24h-1.665l.616-2.67h-2.25L149.955,24H148.29l.616-2.67H147.09l.361-1.515h1.8l.48-2.085h-1.815l.345-1.516h1.83l.63-2.714h1.665l-.63,2.714h2.25l.63-2.714H156.3l-.63,2.714h1.845l-.345,1.516h-1.86l-.465,2.085h1.86Zm-3.15-1.515.465-2.085H151.4l-.48,2.085Z" fill="#0b1138"/>
    <path id="Tracé_113" data-name="Tracé 113" d="M166.268,15.082a3.9,3.9,0,0,0-1.657-.352,3.548,3.548,0,0,0-1.838.465,3.156,3.156,0,0,0-1.223,1.313,4.223,4.223,0,0,0-.434,1.957,4.057,4.057,0,0,0,.442,1.92A3.2,3.2,0,0,0,162.8,21.69a3.566,3.566,0,0,0,1.822.465,3.746,3.746,0,0,0,1.83-.42,3.567,3.567,0,0,0,1.3-1.29l1.606,1.455a5.094,5.094,0,0,1-2.04,1.688,6.72,6.72,0,0,1-2.821.562,6.278,6.278,0,0,1-3.067-.735,5.228,5.228,0,0,1-2.085-2.048,5.808,5.808,0,0,1-.728-2.962,5.732,5.732,0,0,1,.75-2.948,5.183,5.183,0,0,1,2.1-1.994,6.546,6.546,0,0,1,3.106-.713,5.674,5.674,0,0,1,4.424,1.785l-1.5,1.53a3.24,3.24,0,0,0-1.237-.983" fill="#0b1138"/>
    <path id="Tracé_114" data-name="Tracé 114" d="M172.77,12.9l3.78,7.14,3.72-7.14h2.265l.03,11.1h-2.505l-.03-6.645-2.9,5.534H175.9l-2.9-5.4V24H170.5V12.9Z" fill="#0b1138"/>
    <path id="Tracé_115" data-name="Tracé 115" d="M192.149,13.6a4.917,4.917,0,0,1,1.936,1.951,5.884,5.884,0,0,1,.689,2.887,5.972,5.972,0,0,1-.689,2.9,4.883,4.883,0,0,1-1.936,1.965,5.772,5.772,0,0,1-2.864.7h-4.546V12.9h4.546a5.76,5.76,0,0,1,2.864.7m-1.29,7.966a2.933,2.933,0,0,0,1.051-1.253,4.835,4.835,0,0,0,0-3.734,2.933,2.933,0,0,0-1.051-1.253,2.779,2.779,0,0,0-1.56-.443h-2.145V22H189.3a2.778,2.778,0,0,0,1.56-.442" fill="#0b1138"/>
    <path id="Tracé_116" data-name="Tracé 116" d="M272.37,21.33h-1.844L269.91,24h-1.665l.616-2.67h-2.25L265.995,24H264.33l.616-2.67H263.13l.361-1.515h1.8l.48-2.085h-1.815l.345-1.516h1.83l.63-2.714h1.665l-.63,2.714h2.25l.63-2.714h1.665l-.63,2.714h1.845l-.345,1.516h-1.86l-.465,2.085h1.86Zm-3.15-1.515.465-2.085h-2.25l-.48,2.085Z" fill="#0b1138"/>
    <path id="Tracé_117" data-name="Tracé 117" d="M283.605,19.335h-5.881V24h-2.415V12.9h2.415v4.44h5.881V12.9H286V24h-2.4Z" fill="#0b1138"/>
    <path id="Tracé_118" data-name="Tracé 118" d="M290.82,24V14.88h-3.33V12.9h9.059v1.98h-3.33V24Z" fill="#0b1138"/>
    <path id="Tracé_119" data-name="Tracé 119" d="M299.955,12.9l3.779,7.14,3.721-7.14h2.265l.03,11.1h-2.505l-.03-6.645-2.9,5.534H303.09l-2.9-5.4V24h-2.505V12.9Z" fill="#0b1138"/>
    <path id="Tracé_120" data-name="Tracé 120" d="M311.924,12.9h2.415V22h4.8v2h-7.216Z" fill="#0b1138"/>
    <path id="Tracé_121" data-name="Tracé 121" d="M379.307,21.33h-1.844L376.847,24h-1.665l.616-2.67h-2.25L372.932,24h-1.665l.616-2.67h-1.815l.36-1.515h1.8l.481-2.085h-1.816l.346-1.516h1.83l.63-2.714h1.665l-.63,2.714h2.25l.63-2.714h1.665l-.63,2.714h1.845l-.345,1.516h-1.86l-.465,2.085h1.859Zm-3.149-1.515.465-2.085h-2.25l-.481,2.085Z" fill="#0b1138"/>
    <path id="Tracé_122" data-name="Tracé 122" d="M382.248,12.9h2.415V22h4.8v2h-7.215Z" fill="#0b1138"/>
    <rect id="Rectangle_75" data-name="Rectangle 75" width="2.415" height="11.1" transform="translate(390.947 12.9)" fill="#0b1138"/>
    <path id="Tracé_123" data-name="Tracé 123" d="M398.252,16.965,398.3,24h-2.415V12.9h1.5l6.78,7.034L404.1,12.9h2.4V24h-1.484Z" fill="#0b1138"/>
    <path id="Tracé_124" data-name="Tracé 124" d="M418.173,22.035a4.126,4.126,0,0,1-1.74,1.56,6.274,6.274,0,0,1-5.16,0,4.168,4.168,0,0,1-1.747-1.56,4.289,4.289,0,0,1-.624-2.311V12.9h2.4v6.72a2.465,2.465,0,0,0,.7,1.837,2.525,2.525,0,0,0,1.859.7,2.395,2.395,0,0,0,2.521-2.535V12.9h2.4v6.824a4.345,4.345,0,0,1-.614,2.311" fill="#0b1138"/>
    <path id="Tracé_125" data-name="Tracé 125" d="M419.852,24l3.99-5.745L420.123,12.9H422.9l2.279,3.42,2.28-3.42h2.76L426.5,18.24l4,5.76h-2.759l-2.566-3.8-2.55,3.8Z" fill="#0b1138"/>
  </g>
</svg>
