<svg xmlns="http://www.w3.org/2000/svg" xmlns:xlink="http://www.w3.org/1999/xlink" width="66" height="66" viewBox="0 0 66 66">
  <defs>
    <clipPath id="clip-path">
      <rect id="Rectangle_30" data-name="Rectangle 30" width="50.074" height="24.794" fill="none"/>
    </clipPath>
    <clipPath id="clip-path-2">
      <rect id="Rectangle_29" data-name="Rectangle 29" width="50.074" height="24.794" transform="translate(0 0)" fill="none"/>
    </clipPath>
    <clipPath id="clip-path-3">
      <rect id="Rectangle_28" data-name="Rectangle 28" width="48.657" height="23.377" transform="translate(1.417 1.417)" fill="none"/>
    </clipPath>
  </defs>
  <g id="FormationC" transform="translate(-414 -2608)">
    <circle id="Ellipse_13" data-name="Ellipse 13" cx="33" cy="33" r="33" transform="translate(414 2608)" fill="#fff"/>
    <g id="Groupe_16" data-name="Groupe 16" transform="translate(421.963 2631.206)">
      <g id="Groupe_13" data-name="Groupe 13" clip-path="url(#clip-path)">
        <g id="Groupe_12" data-name="Groupe 12">
          <g id="Groupe_11" data-name="Groupe 11" clip-path="url(#clip-path-2)">
            <g id="Groupe_10" data-name="Groupe 10" opacity="0.2">
              <g id="Groupe_9" data-name="Groupe 9">
                <g id="Groupe_8" data-name="Groupe 8" clip-path="url(#clip-path-3)">
                  <path id="Tracé_15" data-name="Tracé 15" d="M37.474,14.263A11.659,11.659,0,0,1,14.4,15.2a44.757,44.757,0,0,0,12.363.422,50.061,50.061,0,0,0,10.756-1.94q-.013.288-.042.579" fill="#606060"/>
                  <path id="Tracé_16" data-name="Tracé 16" d="M50.072,11.811c-.127-2.36-5.907-4.09-14.161-4.6A11.179,11.179,0,0,1,36.655,8.7c3.013.4,4.938,1.153,5.021,2.162.078.958-1.515,1.962-4.159,2.817a50.145,50.145,0,0,1-10.757,1.94A44.757,44.757,0,0,1,14.4,15.2c-1.906-.428-3.065-1.056-3.128-1.834-.069-.831,1.12-1.7,3.162-2.468a11.5,11.5,0,0,1,.835-2.606C6.971,9.684,1.291,12.051,1.42,14.436s6.022,4.125,14.409,4.616a92.4,92.4,0,0,0,10.236-.006A91.716,91.716,0,0,0,36.512,17.9c8.139-1.395,13.687-3.735,13.56-6.093" fill="#606060"/>
                  <path id="Tracé_17" data-name="Tracé 17" d="M37.516,13.684a50.053,50.053,0,0,1-10.757,1.941A44.826,44.826,0,0,1,14.4,15.2a11.627,11.627,0,0,1-.128-3.194c.037-.375.09-.745.162-1.109a11.528,11.528,0,0,1,.834-2.606A11.659,11.659,0,0,1,35.911,7.211a11.63,11.63,0,0,1,1.6,6.473" fill="#606060"/>
                  <path id="Tracé_18" data-name="Tracé 18" d="M22.577,9.866a13.6,13.6,0,0,0,.69,5.893,38.077,38.077,0,0,1-8.784-.617,11.629,11.629,0,0,1-.127-3.194q.054-.564.161-1.109a11.546,11.546,0,0,1,.834-2.606A11.663,11.663,0,0,1,26.735,1.444a12.451,12.451,0,0,0-4.158,8.422" fill="#606060"/>
                  <path id="Tracé_19" data-name="Tracé 19" d="M18,11.5a13.624,13.624,0,0,0,.242,4.224A26.68,26.68,0,0,1,14.4,15.2a11.626,11.626,0,0,1-.127-3.194,11.2,11.2,0,0,1,.162-1.108A11.446,11.446,0,0,1,15.266,8.3a11.678,11.678,0,0,1,9.02-6.71A12.453,12.453,0,0,0,18,11.5" fill="#606060"/>
                  <path id="Tracé_20" data-name="Tracé 20" d="M25.828,19.98a4.114,4.114,0,0,0,1.563,1.809,4.2,4.2,0,0,0,2.6.549,5.884,5.884,0,0,0,3.332-1.612,6.918,6.918,0,0,0,1.327-1.737" fill="#606060"/>
                  <path id="Tracé_21" data-name="Tracé 21" d="M12.272,10.093c-.062-.153-.617-.082-2.154.255a18.181,18.181,0,0,0-3.743,1.034c-.974.472-2.347,1.137-2.431,2.182a1.953,1.953,0,0,0,.632,1.417c1.407,1.575,3.731,2.169,8.5,2.724,2.85.331,5.137.482,5.168.273.057-.4-8.142-1.16-8.625-3.944a2.877,2.877,0,0,1,.1-1.164c.537-1.815,2.679-2.467,2.553-2.777" fill="#606060"/>
                </g>
              </g>
            </g>
            <path id="Tracé_22" data-name="Tracé 22" d="M36.057,12.846a11.659,11.659,0,0,1-23.077.939,44.757,44.757,0,0,0,12.363.422A50.061,50.061,0,0,0,36.1,12.267q-.013.288-.042.579" fill="#1b97a2"/>
            <path id="Tracé_23" data-name="Tracé 23" d="M48.654,10.394c-.127-2.36-5.907-4.09-14.161-4.6a11.179,11.179,0,0,1,.744,1.494c3.013.395,4.938,1.153,5.021,2.162.078.958-1.515,1.962-4.159,2.817a50.145,50.145,0,0,1-10.757,1.94,44.757,44.757,0,0,1-12.363-.422c-1.906-.428-3.065-1.056-3.128-1.834-.069-.831,1.12-1.7,3.162-2.468a11.5,11.5,0,0,1,.835-2.606C5.553,8.267-.127,10.634,0,13.019s6.022,4.125,14.409,4.616a92.4,92.4,0,0,0,10.236-.006,91.716,91.716,0,0,0,10.447-1.142c8.139-1.395,13.687-3.735,13.56-6.093" fill="#92eae0"/>
            <path id="Tracé_24" data-name="Tracé 24" d="M36.1,12.267a50.053,50.053,0,0,1-10.757,1.941,44.826,44.826,0,0,1-12.362-.422,11.627,11.627,0,0,1-.128-3.194c.037-.375.09-.745.162-1.108a11.52,11.52,0,0,1,.834-2.607A11.659,11.659,0,0,1,34.494,5.794a11.63,11.63,0,0,1,1.6,6.473" fill="#23a4af"/>
            <path id="Tracé_25" data-name="Tracé 25" d="M21.16,8.448a13.6,13.6,0,0,0,.69,5.893,38.077,38.077,0,0,1-8.784-.617,11.629,11.629,0,0,1-.127-3.194q.054-.564.161-1.109a11.546,11.546,0,0,1,.834-2.606A11.663,11.663,0,0,1,25.318.026,12.451,12.451,0,0,0,21.16,8.448" fill="#1b97a2"/>
            <path id="Tracé_26" data-name="Tracé 26" d="M16.577,10.085a13.624,13.624,0,0,0,.242,4.224,26.68,26.68,0,0,1-3.84-.523,11.626,11.626,0,0,1-.127-3.194,11.2,11.2,0,0,1,.162-1.108,11.446,11.446,0,0,1,.834-2.606,11.678,11.678,0,0,1,9.02-6.71,12.453,12.453,0,0,0-6.291,9.917" fill="#138d98"/>
            <path id="Tracé_27" data-name="Tracé 27" d="M24.41,18.563a4.114,4.114,0,0,0,1.563,1.809,4.2,4.2,0,0,0,2.6.549,5.884,5.884,0,0,0,3.332-1.612,6.918,6.918,0,0,0,1.327-1.737" fill="#23a4af"/>
            <path id="Tracé_28" data-name="Tracé 28" d="M10.855,8.676c-.062-.153-.617-.082-2.154.255A18.181,18.181,0,0,0,4.958,9.965c-.974.472-2.347,1.137-2.431,2.182a1.953,1.953,0,0,0,.632,1.417c1.407,1.575,3.731,2.169,8.5,2.724,2.85.331,5.137.482,5.168.273.057-.4-8.142-1.16-8.625-3.944a2.877,2.877,0,0,1,.1-1.164c.537-1.815,2.679-2.467,2.553-2.777" fill="#a5efe6"/>
          </g>
        </g>
      </g>
    </g>
  </g>
</svg>
