<svg xmlns="http://www.w3.org/2000/svg" xmlns:xlink="http://www.w3.org/1999/xlink" width="27.721" height="27.144" viewBox="0 0 27.721 27.144">
  <defs>
    <clipPath id="clip-path">
      <rect id="Rectangle_46" data-name="Rectangle 46" width="27.721" height="27.144" fill="none"/>
    </clipPath>
  </defs>
  <g id="Groupe_23" data-name="Groupe 23" transform="translate(0 0)">
    <g id="Groupe_22" data-name="Groupe 22" transform="translate(0 -0.001)" clip-path="url(#clip-path)">
      <path id="Tracé_29" data-name="Tracé 29" d="M13.859,0A13.924,13.924,0,0,0,9.48,27.119c.693.128.946-.3.946-.67,0-.331-.012-1.206-.019-2.367-3.855.84-4.669-1.866-4.669-1.866A3.676,3.676,0,0,0,4.2,20.181c-1.26-.863.094-.845.094-.845A2.91,2.91,0,0,1,6.416,20.77a2.946,2.946,0,0,0,4.035,1.156,2.973,2.973,0,0,1,.88-1.861c-3.077-.351-6.313-1.545-6.313-6.876A5.4,5.4,0,0,1,6.445,9.453,5.016,5.016,0,0,1,6.58,5.771S7.745,5.4,10.392,7.2a13.076,13.076,0,0,1,6.94,0c2.646-1.8,3.808-1.426,3.808-1.426a5.022,5.022,0,0,1,.139,3.682A5.385,5.385,0,0,1,22.7,13.19c0,5.345-3.24,6.521-6.327,6.866a3.329,3.329,0,0,1,.941,2.576c0,1.86-.018,3.361-.018,3.817,0,.372.25.805.953.668A13.925,13.925,0,0,0,13.859,0" transform="translate(0 0)" fill="#fff"/>
    </g>
  </g>
</svg>
