<svg xmlns="http://www.w3.org/2000/svg" width="150.834" height="163.441" viewBox="0 0 150.834 163.441">
  <g id="LogoOnglet" transform="translate(-94.343 -1119.719)">
    <path id="Tracé_12" data-name="Tracé 12" d="M186.109,1280.963a6.308,6.308,0,0,1,2.742,10.784c-5.334,4.68-12.7,7.916-23.237,8.663-47.024,3.335-83.113-42.884-67.636-87.8,4.708-13.669,16.937-27.079,31.212-24.8,12.33,1.97,19.925,14.552,23.748,26.444,3.7,11.524,5.506,23.593,9.241,35.113S171.97,1272.215,182,1279A14,14,0,0,0,186.109,1280.963Z" transform="translate(0 -17.42)" fill="#fff"/>
    <path id="Tracé_13" data-name="Tracé 13" d="M154.561,1141.563a6.375,6.375,0,0,1-3.255-10.862c6.158-5.885,14.846-9.973,27.624-10.816,53.3-3.5,93.924,49.074,76.125,99.882-5.414,15.462-19.348,30.586-35.51,27.916-13.961-2.309-22.493-16.608-26.755-30.1-4.13-13.08-6.1-26.768-10.265-39.84s-10.961-25.946-22.285-33.691A14.861,14.861,0,0,0,154.561,1141.563Z" transform="translate(-14.123 0)" fill="#fff"/>
  </g>
</svg>
