<svg xmlns="http://www.w3.org/2000/svg" width="36.939" height="40.027" viewBox="0 0 36.939 40.027">
  <g id="Groupe_5" data-name="Groupe 5" transform="translate(-94.343 -1119.719)">
    <path id="Tracé_12" data-name="Tracé 12" d="M116.816,1210.432a1.545,1.545,0,0,1,.672,2.641,9.281,9.281,0,0,1-5.691,2.121,16.325,16.325,0,0,1-16.564-21.5c1.153-3.347,4.148-6.631,7.644-6.072,3.02.483,4.88,3.564,5.816,6.476.907,2.822,1.348,5.779,2.263,8.6s2.4,5.595,4.854,7.257A3.4,3.4,0,0,0,116.816,1210.432Z" transform="translate(0 -55.491)" fill="#fff"/>
    <path id="Tracé_13" data-name="Tracé 13" d="M150.621,1125.068a1.561,1.561,0,0,1-.8-2.66,10.319,10.319,0,0,1,6.765-2.648,18.5,18.5,0,0,1,18.643,24.461c-1.326,3.786-4.738,7.49-8.7,6.836-3.419-.565-5.508-4.067-6.552-7.372-1.011-3.2-1.494-6.555-2.514-9.757s-2.684-6.354-5.458-8.251A3.64,3.64,0,0,0,150.621,1125.068Z" transform="translate(-44.989)" fill="#fff"/>
  </g>
</svg>
