<svg id="Groupe_35" data-name="Groupe 35" xmlns="http://www.w3.org/2000/svg" xmlns:xlink="http://www.w3.org/1999/xlink" width="572" height="37" viewBox="0 0 572 37">
  <defs>
    <clipPath id="clip-path">
      <rect id="Rectangle_70" data-name="Rectangle 70" width="572" height="37" fill="none"/>
    </clipPath>
  </defs>
  <g id="Groupe_34" data-name="Groupe 34" clip-path="url(#clip-path)">
    <path id="Tracé_36" data-name="Tracé 36" d="M18.5,0h64a18.5,18.5,0,0,1,0,37h-64a18.5,18.5,0,0,1,0-37" fill="#fff"/>
    <path id="Tracé_37" data-name="Tracé 37" d="M18.5.5h64a18,18,0,0,1,0,36h-64a18,18,0,0,1,0-36Z" fill="none" stroke="#dbdbdb" stroke-width="1"/>
    <path id="Tracé_38" data-name="Tracé 38" d="M138.5,0h64a18.5,18.5,0,0,1,0,37h-64a18.5,18.5,0,0,1,0-37" fill="#fff"/>
    <path id="Tracé_39" data-name="Tracé 39" d="M138.5.5h64a18,18,0,0,1,0,36h-64a18,18,0,0,1,0-36Z" fill="none" stroke="#dbdbdb" stroke-width="1"/>
    <path id="Tracé_40" data-name="Tracé 40" d="M258.5,0h64a18.5,18.5,0,0,1,0,37h-64a18.5,18.5,0,0,1,0-37" fill="#fff"/>
    <path id="Tracé_41" data-name="Tracé 41" d="M258.5.5h64a18,18,0,0,1,0,36h-64a18,18,0,0,1,0-36Z" fill="none" stroke="#dbdbdb" stroke-width="1"/>
    <path id="Tracé_42" data-name="Tracé 42" d="M370.5,0h64a18.5,18.5,0,0,1,0,37h-64a18.5,18.5,0,0,1,0-37" fill="#fff"/>
    <path id="Tracé_43" data-name="Tracé 43" d="M370.5.5h64a18,18,0,0,1,0,36h-64a18,18,0,0,1,0-36Z" fill="none" stroke="#dbdbdb" stroke-width="1"/>
    <path id="Tracé_44" data-name="Tracé 44" d="M489.5,0h64a18.5,18.5,0,0,1,0,37h-64a18.5,18.5,0,0,1,0-37" fill="#fff"/>
    <path id="Tracé_45" data-name="Tracé 45" d="M489.5.5h64a18,18,0,0,1,0,36h-64a18,18,0,0,1,0-36Z" fill="none" stroke="#dbdbdb" stroke-width="1"/>
    <path id="Tracé_46" data-name="Tracé 46" d="M32.37,21.331H30.525L29.91,24H28.245l.615-2.67H26.61L26,24H24.33l.615-2.67H23.13l.36-1.515h1.8l.48-2.085H23.955l.345-1.516h1.83l.63-2.714h1.665l-.63,2.714h2.25l.63-2.714H32.34l-.63,2.714h1.845l-.345,1.516H31.35l-.465,2.085h1.86Zm-3.15-1.515.465-2.085h-2.25l-.48,2.085Z" fill="#0b1138"/>
    <path id="Tracé_47" data-name="Tracé 47" d="M43.605,19.335h-5.88V24H35.31V12.9h2.415v4.44h5.88V12.9h2.4V24h-2.4Z" fill="#0b1138"/>
    <path id="Tracé_48" data-name="Tracé 48" d="M50.82,24V14.88H47.49V12.9h9.06v1.98H53.22V24Z" fill="#0b1138"/>
    <path id="Tracé_49" data-name="Tracé 49" d="M59.955,12.9l3.78,7.14,3.72-7.14H69.72L69.75,24h-2.5l-.03-6.645-2.9,5.534H63.09l-2.9-5.4V24H57.69V12.9Z" fill="#0b1138"/>
    <path id="Tracé_50" data-name="Tracé 50" d="M71.924,12.9h2.415V22h4.8v2H71.924Z" fill="#0b1138"/>
    <path id="Tracé_51" data-name="Tracé 51" d="M160,21.331h-1.845L157.537,24h-1.665l.615-2.67h-2.25L153.622,24h-1.665l.615-2.67h-1.815l.36-1.515h1.8l.48-2.085h-1.815l.345-1.516h1.83l.63-2.714h1.665l-.63,2.714h2.25l.63-2.714h1.665l-.63,2.714h1.845l-.345,1.516h-1.86l-.465,2.085h1.86Zm-3.15-1.515.465-2.085h-2.25l-.48,2.085Z" fill="#0b1138"/>
    <path id="Tracé_52" data-name="Tracé 52" d="M169.934,15.082a3.892,3.892,0,0,0-1.657-.352,3.548,3.548,0,0,0-1.838.465,3.16,3.16,0,0,0-1.222,1.313,4.223,4.223,0,0,0-.435,1.957,4.057,4.057,0,0,0,.442,1.92,3.2,3.2,0,0,0,1.245,1.305,3.57,3.57,0,0,0,1.823.465,3.745,3.745,0,0,0,1.829-.42,3.569,3.569,0,0,0,1.306-1.29l1.6,1.455a5.094,5.094,0,0,1-2.04,1.688,6.716,6.716,0,0,1-2.82.562,6.282,6.282,0,0,1-3.068-.735,5.234,5.234,0,0,1-2.085-2.048,5.8,5.8,0,0,1-.727-2.962,5.722,5.722,0,0,1,.75-2.948,5.17,5.17,0,0,1,2.1-1.994,6.542,6.542,0,0,1,3.1-.713,5.676,5.676,0,0,1,4.425,1.785l-1.5,1.53a3.251,3.251,0,0,0-1.238-.983" fill="#0b1138"/>
    <path id="Tracé_53" data-name="Tracé 53" d="M175.612,23.7a4.9,4.9,0,0,1-1.5-.976l.9-1.619a4.978,4.978,0,0,0,1.23.765,3.71,3.71,0,0,0,1.485.285A2,2,0,0,0,179,21.832a.959.959,0,0,0,.39-.757,1.144,1.144,0,0,0-.15-.615,1.4,1.4,0,0,0-.54-.45,7.154,7.154,0,0,0-1.14-.451l-.78-.239a5.544,5.544,0,0,1-2.047-1.11,2.622,2.622,0,0,1-.758-2.04,3.236,3.236,0,0,1,.5-1.808,3.283,3.283,0,0,1,1.4-1.192,4.881,4.881,0,0,1,2.085-.42,5.191,5.191,0,0,1,1.935.383,4.685,4.685,0,0,1,1.5.892l-1.035,1.665a5.388,5.388,0,0,0-1.14-.7,3.127,3.127,0,0,0-1.29-.255,1.618,1.618,0,0,0-1.117.323,1.009,1.009,0,0,0-.353.772,1.1,1.1,0,0,0,.1.487,1.05,1.05,0,0,0,.412.4,4.766,4.766,0,0,0,.945.405l.795.255a5.959,5.959,0,0,1,2.31,1.268,3.2,3.2,0,0,1,.4,3.832,3.3,3.3,0,0,1-1.372,1.214,4.843,4.843,0,0,1-2.22.466,5.305,5.305,0,0,1-2.22-.45" fill="#0b1138"/>
    <path id="Tracé_54" data-name="Tracé 54" d="M184.851,23.7a4.9,4.9,0,0,1-1.5-.976l.9-1.619a4.978,4.978,0,0,0,1.23.765,3.71,3.71,0,0,0,1.485.285,2,2,0,0,0,1.275-.323.959.959,0,0,0,.39-.757,1.144,1.144,0,0,0-.15-.615,1.4,1.4,0,0,0-.54-.45,7.154,7.154,0,0,0-1.14-.451l-.78-.239a5.544,5.544,0,0,1-2.047-1.11,2.622,2.622,0,0,1-.758-2.04,3.236,3.236,0,0,1,.5-1.808,3.283,3.283,0,0,1,1.4-1.192,4.881,4.881,0,0,1,2.085-.42,5.191,5.191,0,0,1,1.935.383,4.686,4.686,0,0,1,1.5.892l-1.035,1.665a5.388,5.388,0,0,0-1.14-.7,3.127,3.127,0,0,0-1.29-.255,1.618,1.618,0,0,0-1.117.323,1.009,1.009,0,0,0-.353.772,1.1,1.1,0,0,0,.1.487,1.05,1.05,0,0,0,.412.4,4.766,4.766,0,0,0,.945.405l.795.255a5.959,5.959,0,0,1,2.31,1.268,3.2,3.2,0,0,1,.4,3.832,3.3,3.3,0,0,1-1.372,1.214,4.843,4.843,0,0,1-2.22.466,5.305,5.305,0,0,1-2.22-.45" fill="#0b1138"/>
    <path id="Tracé_55" data-name="Tracé 55" d="M278.16,21.331h-1.845L275.7,24h-1.665l.615-2.67H272.4L271.785,24H270.12l.615-2.67H268.92l.36-1.515h1.8l.48-2.085h-1.815l.345-1.516h1.83l.63-2.714h1.665l-.63,2.714h2.25l.63-2.714h1.665l-.63,2.714h1.845L279,17.731h-1.86l-.465,2.085h1.86Zm-3.15-1.515.465-2.085h-2.25l-.48,2.085Z" fill="#0b1138"/>
    <path id="Tracé_56" data-name="Tracé 56" d="M287.82,13.357a3.369,3.369,0,0,1,1.395,1.282,3.636,3.636,0,0,1,.495,1.906,3.826,3.826,0,0,1-.51,1.987,3.517,3.517,0,0,1-1.432,1.343,4.571,4.571,0,0,1-2.138.48h-2.115V24H281.1V12.9h4.65a4.506,4.506,0,0,1,2.07.457M286.755,17.9a1.726,1.726,0,0,0,.465-1.268,1.736,1.736,0,0,0-.472-1.274,1.7,1.7,0,0,0-1.268-.48h-1.965v3.495h1.965a1.708,1.708,0,0,0,1.275-.473" fill="#0b1138"/>
    <path id="Tracé_57" data-name="Tracé 57" d="M299.655,19.335h-5.88V24H291.36V12.9h2.415v4.44h5.88V12.9h2.4V24h-2.4Z" fill="#0b1138"/>
    <path id="Tracé_58" data-name="Tracé 58" d="M311.3,13.357a3.37,3.37,0,0,1,1.395,1.282,3.637,3.637,0,0,1,.495,1.906,3.826,3.826,0,0,1-.51,1.987,3.517,3.517,0,0,1-1.432,1.343,4.571,4.571,0,0,1-2.138.48H306.99V24h-2.415V12.9h4.65a4.506,4.506,0,0,1,2.07.457M310.23,17.9a1.726,1.726,0,0,0,.465-1.268,1.736,1.736,0,0,0-.472-1.274,1.7,1.7,0,0,0-1.268-.48H306.99v3.495h1.965a1.708,1.708,0,0,0,1.275-.473" fill="#0b1138"/>
    <path id="Tracé_59" data-name="Tracé 59" d="M376.562,21.331h-1.845L374.1,24h-1.665l.615-2.67H370.8L370.187,24h-1.665l.615-2.67h-1.815l.36-1.515h1.8l.48-2.085h-1.815l.345-1.516h1.83l.63-2.714h1.665l-.63,2.714h2.25l.63-2.714h1.665l-.63,2.714h1.845l-.345,1.516h-1.86l-.465,2.085h1.86Zm-3.15-1.515.465-2.085h-2.25l-.48,2.085Z" fill="#0b1138"/>
    <path id="Tracé_60" data-name="Tracé 60" d="M381.422,12.9l3.78,7.14,3.72-7.14h2.265l.03,11.1h-2.505l-.03-6.645-2.895,5.534h-1.23l-2.895-5.4V24h-2.505V12.9Z" fill="#0b1138"/>
    <path id="Tracé_61" data-name="Tracé 61" d="M396.047,24V20.025L392.132,12.9H394.7l2.565,5,2.565-5h2.55l-3.915,7.125V24Z" fill="#0b1138"/>
    <path id="Tracé_62" data-name="Tracé 62" d="M404.747,23.7a4.9,4.9,0,0,1-1.5-.976l.9-1.619a4.978,4.978,0,0,0,1.23.765,3.71,3.71,0,0,0,1.485.285,2,2,0,0,0,1.275-.323.959.959,0,0,0,.39-.757,1.144,1.144,0,0,0-.15-.615,1.4,1.4,0,0,0-.54-.45,7.155,7.155,0,0,0-1.14-.451l-.78-.239a5.544,5.544,0,0,1-2.047-1.11,2.622,2.622,0,0,1-.758-2.04,3.236,3.236,0,0,1,.5-1.808,3.283,3.283,0,0,1,1.4-1.192,4.881,4.881,0,0,1,2.085-.42,5.191,5.191,0,0,1,1.935.383,4.685,4.685,0,0,1,1.5.892L409.5,15.69a5.388,5.388,0,0,0-1.14-.7,3.127,3.127,0,0,0-1.29-.255,1.618,1.618,0,0,0-1.117.323,1.009,1.009,0,0,0-.353.772,1.1,1.1,0,0,0,.1.487,1.05,1.05,0,0,0,.412.4,4.765,4.765,0,0,0,.945.405l.795.255a5.959,5.959,0,0,1,2.31,1.268,3.2,3.2,0,0,1,.4,3.832,3.3,3.3,0,0,1-1.372,1.214,4.843,4.843,0,0,1-2.22.466,5.305,5.305,0,0,1-2.22-.45" fill="#0b1138"/>
    <path id="Tracé_63" data-name="Tracé 63" d="M421.891,26.475a4.806,4.806,0,0,1-1.665-.27,5.2,5.2,0,0,1-1.38-.764,13.679,13.679,0,0,1-1.455-1.335l-.48-.091a5.563,5.563,0,0,1-2.452-.967,5.086,5.086,0,0,1-1.635-1.942,5.985,5.985,0,0,1-.577-2.656,5.885,5.885,0,0,1,.742-2.977,5.111,5.111,0,0,1,2.085-2.01,7,7,0,0,1,6.157,0,5.124,5.124,0,0,1,2.078,2.01,5.886,5.886,0,0,1,.742,2.977,5.7,5.7,0,0,1-.945,3.3,5.137,5.137,0,0,1-2.58,1.965,1.622,1.622,0,0,0,.585.638,1.6,1.6,0,0,0,.825.2,2.179,2.179,0,0,0,1.635-.779l1.2,1.409a3.594,3.594,0,0,1-2.88,1.29m-6.727-6.09a3.14,3.14,0,0,0,1.208,1.306,3.643,3.643,0,0,0,3.562,0,3.21,3.21,0,0,0,1.207-1.306,4.537,4.537,0,0,0,0-3.877,3.189,3.189,0,0,0-1.207-1.312,3.643,3.643,0,0,0-3.562,0,3.12,3.12,0,0,0-1.208,1.312,4.6,4.6,0,0,0,0,3.877" fill="#0b1138"/>
    <path id="Tracé_64" data-name="Tracé 64" d="M425.731,12.9h2.415V22h4.8v2h-7.215Z" fill="#0b1138"/>
    <path id="Tracé_65" data-name="Tracé 65" d="M510.023,21.331h-1.845L507.563,24H505.9l.615-2.67h-2.25L503.648,24h-1.665l.615-2.67h-1.815l.36-1.515h1.8l.48-2.085h-1.815l.345-1.516h1.83l.63-2.714h1.665l-.63,2.714h2.25l.63-2.714h1.665l-.63,2.714h1.845l-.345,1.516H509l-.465,2.085h1.86Zm-3.15-1.515.465-2.085h-2.25l-.48,2.085Z" fill="#0b1138"/>
    <path id="Tracé_66" data-name="Tracé 66" d="M515.131,23.49a5.356,5.356,0,0,1-2.063-2.04,6.153,6.153,0,0,1,0-5.888,5.29,5.29,0,0,1,2.078-2.025,6.091,6.091,0,0,1,2.977-.728,6.305,6.305,0,0,1,2.565.534,5.084,5.084,0,0,1,1.995,1.522l-1.65,1.319a3.4,3.4,0,0,0-1.3-1.019,3.78,3.78,0,0,0-1.583-.361,3.337,3.337,0,0,0-1.785.473,3.083,3.083,0,0,0-1.17,1.313,4.368,4.368,0,0,0-.4,1.92,4.175,4.175,0,0,0,.42,1.882,3.336,3.336,0,0,0,1.178,1.343,3.094,3.094,0,0,0,1.732.495,4.044,4.044,0,0,0,1.35-.211,2.144,2.144,0,0,0,.9-.539V19.74h-2.325V17.865h4.7v4.274a5.477,5.477,0,0,1-4.665,2.085,5.925,5.925,0,0,1-2.947-.734" fill="#0b1138"/>
    <rect id="Rectangle_69" data-name="Rectangle 69" width="2.415" height="11.1" transform="translate(524.527 12.9)" fill="#0b1138"/>
    <path id="Tracé_67" data-name="Tracé 67" d="M531.758,24V14.88h-3.33V12.9h9.06v1.98h-3.33V24Z" fill="#0b1138"/>
  </g>
</svg>
