<svg id="Groupe_38" data-name="Groupe 38" xmlns="http://www.w3.org/2000/svg" xmlns:xlink="http://www.w3.org/1999/xlink" width="453" height="37" viewBox="0 0 453 37">
  <defs>
    <clipPath id="clip-path">
      <rect id="Rectangle_74" data-name="Rectangle 74" width="453" height="37" fill="none"/>
    </clipPath>
  </defs>
  <g id="Groupe_37" data-name="Groupe 37" clip-path="url(#clip-path)">
    <path id="Tracé_71" data-name="Tracé 71" d="M18.5,0h64a18.5,18.5,0,0,1,0,37h-64a18.5,18.5,0,0,1,0-37" fill="#fff"/>
    <path id="Tracé_72" data-name="Tracé 72" d="M18.5.5h64a18,18,0,0,1,0,36h-64a18,18,0,0,1,0-36Z" fill="none" stroke="#dbdbdb" stroke-width="1"/>
    <path id="Tracé_73" data-name="Tracé 73" d="M138.5,0h64a18.5,18.5,0,0,1,0,37h-64a18.5,18.5,0,0,1,0-37" fill="#fff"/>
    <path id="Tracé_74" data-name="Tracé 74" d="M138.5.5h64a18,18,0,0,1,0,36h-64a18,18,0,0,1,0-36Z" fill="none" stroke="#dbdbdb" stroke-width="1"/>
    <path id="Tracé_75" data-name="Tracé 75" d="M258.5,0h64a18.5,18.5,0,0,1,0,37h-64a18.5,18.5,0,0,1,0-37" fill="#fff"/>
    <path id="Tracé_76" data-name="Tracé 76" d="M258.5.5h64a18,18,0,0,1,0,36h-64a18,18,0,0,1,0-36Z" fill="none" stroke="#dbdbdb" stroke-width="1"/>
    <path id="Tracé_77" data-name="Tracé 77" d="M370.5,0h64a18.5,18.5,0,0,1,0,37h-64a18.5,18.5,0,0,1,0-37" fill="#fff"/>
    <path id="Tracé_78" data-name="Tracé 78" d="M370.5.5h64a18,18,0,0,1,0,36h-64a18,18,0,0,1,0-36Z" fill="none" stroke="#dbdbdb" stroke-width="1"/>
    <path id="Tracé_79" data-name="Tracé 79" d="M29.587,21.33H27.742L27.127,24H25.462l.615-2.67h-2.25L23.212,24H21.547l.615-2.67H20.347l.36-1.515h1.8l.48-2.085H21.172l.345-1.516h1.83l.63-2.714h1.665l-.63,2.714h2.25l.63-2.714h1.665l-.63,2.714h1.845l-.345,1.516h-1.86L28.1,19.815h1.86Zm-3.15-1.515L26.9,17.73h-2.25l-.48,2.085Z" fill="#0b1138"/>
    <path id="Tracé_80" data-name="Tracé 80" d="M39.022,19.679h-4.08V24H32.527V12.9h7.23v1.979H34.942v2.805h4.08Z" fill="#0b1138"/>
    <rect id="Rectangle_72" data-name="Rectangle 72" width="2.415" height="11.1" transform="translate(41.512 12.9)" fill="#0b1138"/>
    <path id="Tracé_81" data-name="Tracé 81" d="M48.614,23.49a5.356,5.356,0,0,1-2.063-2.04,6.153,6.153,0,0,1,0-5.888,5.29,5.29,0,0,1,2.078-2.025,6.09,6.09,0,0,1,2.977-.728,6.306,6.306,0,0,1,2.565.534,5.085,5.085,0,0,1,1.995,1.522l-1.65,1.319a3.4,3.4,0,0,0-1.3-1.019,3.78,3.78,0,0,0-1.583-.361,3.336,3.336,0,0,0-1.785.473,3.083,3.083,0,0,0-1.17,1.313,4.368,4.368,0,0,0-.4,1.92,4.176,4.176,0,0,0,.42,1.882,3.336,3.336,0,0,0,1.178,1.343,3.094,3.094,0,0,0,1.732.495,4.043,4.043,0,0,0,1.35-.211,2.144,2.144,0,0,0,.9-.539V19.74H51.531V17.865h4.7v4.274a5.477,5.477,0,0,1-4.665,2.085,5.925,5.925,0,0,1-2.947-.734" fill="#0b1138"/>
    <path id="Tracé_82" data-name="Tracé 82" d="M59.932,12.9l3.78,7.14,3.72-7.14H69.7l.03,11.1h-2.5l-.03-6.645-2.9,5.534h-1.23l-2.9-5.4V24H57.667V12.9Z" fill="#0b1138"/>
    <path id="Tracé_83" data-name="Tracé 83" d="M70.581,24l4.695-11.1h2.235L82.206,24h-2.58l-.81-2.01h-4.86L73.146,24Zm7.485-3.99L76.4,15.885l-1.68,4.125Z" fill="#0b1138"/>
    <path id="Tracé_84" data-name="Tracé 84" d="M144.667,21.33h-1.845L142.207,24h-1.665l.615-2.67h-2.25L138.292,24h-1.665l.615-2.67h-1.815l.36-1.515h1.8l.48-2.085h-1.815l.345-1.516h1.83l.63-2.714h1.665l-.63,2.714h2.25l.63-2.714h1.665l-.63,2.714h1.845l-.345,1.516h-1.86l-.465,2.085h1.86Zm-3.15-1.515.465-2.085h-2.25l-.48,2.085Z" fill="#0b1138"/>
    <path id="Tracé_85" data-name="Tracé 85" d="M149.527,12.9l3.78,7.14,3.72-7.14h2.265l.03,11.1h-2.505l-.03-6.645-2.9,5.534h-1.23l-2.9-5.4V24h-2.505V12.9Z" fill="#0b1138"/>
    <path id="Tracé_86" data-name="Tracé 86" d="M166.4,16.1a3.014,3.014,0,0,1,1.26,1.118,3.075,3.075,0,0,1,.45,1.665V24h-1.665l-.585-1.066a3.047,3.047,0,0,1-.982.878,2.727,2.727,0,0,1-1.373.338,2.975,2.975,0,0,1-2.077-.713,2.4,2.4,0,0,1-.788-1.867,2.267,2.267,0,0,1,.435-1.365,2.8,2.8,0,0,1,1.23-.93,4.742,4.742,0,0,1,1.83-.33,8.248,8.248,0,0,1,1.62.165v-.225a1.344,1.344,0,0,0-.525-1,2.059,2.059,0,0,0-1.275-.353,2.9,2.9,0,0,0-1.815.585l-.99-1.38a5.057,5.057,0,0,1,1.523-.78,6.324,6.324,0,0,1,1.882-.255,4.148,4.148,0,0,1,1.845.4M165.307,22a1.82,1.82,0,0,0,.48-1.312,7.293,7.293,0,0,0-1.35-.15,1.691,1.691,0,0,0-1,.27.838.838,0,0,0-.383.72.907.907,0,0,0,.292.72,1.207,1.207,0,0,0,.818.255,1.521,1.521,0,0,0,1.14-.5" fill="#0b1138"/>
    <path id="Tracé_87" data-name="Tracé 87" d="M173.992,17.7a1.949,1.949,0,0,0-1.5.615,2.287,2.287,0,0,0-.57,1.619,2.268,2.268,0,0,0,.57,1.606,1.949,1.949,0,0,0,1.5.615,2.163,2.163,0,0,0,1.725-.69l1.32,1.545a3.626,3.626,0,0,1-1.372.855,5.262,5.262,0,0,1-1.763.285,4.827,4.827,0,0,1-2.295-.525,3.755,3.755,0,0,1-1.537-1.486,4.386,4.386,0,0,1-.548-2.219,4.325,4.325,0,0,1,.555-2.2,3.8,3.8,0,0,1,1.553-1.485,4.9,4.9,0,0,1,2.317-.525,4.651,4.651,0,0,1,1.508.247,4.334,4.334,0,0,1,1.312.713l-1.3,1.575a2.084,2.084,0,0,0-1.47-.54" fill="#0b1138"/>
    <path id="Tracé_88" data-name="Tracé 88" d="M179.684,23.625a3.8,3.8,0,0,1-1.552-1.485,4.323,4.323,0,0,1-.555-2.2,4.4,4.4,0,0,1,.547-2.22,3.746,3.746,0,0,1,1.553-1.485,4.917,4.917,0,0,1,2.31-.525,4.836,4.836,0,0,1,2.287.525,3.781,3.781,0,0,1,1.553,1.493,4.672,4.672,0,0,1,0,4.417,3.8,3.8,0,0,1-1.553,1.485,5.279,5.279,0,0,1-4.59,0m3.743-2.085a2.3,2.3,0,0,0,.555-1.605,2.329,2.329,0,0,0-.555-1.62,2.011,2.011,0,0,0-2.9,0,2.329,2.329,0,0,0-.555,1.62,2.3,2.3,0,0,0,.555,1.605,2.011,2.011,0,0,0,2.9,0" fill="#0b1138"/>
    <path id="Tracé_89" data-name="Tracé 89" d="M193.941,22.785a2.753,2.753,0,0,1-1.065,1.013,3.211,3.211,0,0,1-1.53.353,3.744,3.744,0,0,1-3.375-2.018,4.519,4.519,0,0,1-.51-2.168,4.584,4.584,0,0,1,.518-2.2,3.893,3.893,0,0,1,1.4-1.515,3.661,3.661,0,0,1,1.965-.548,3.15,3.15,0,0,1,1.493.338,2.717,2.717,0,0,1,1.042.983V12.3h2.325V24h-1.65Zm-.615-1.237a2.3,2.3,0,0,0,.555-1.613,2.325,2.325,0,0,0-.555-1.619,2.02,2.02,0,0,0-2.91.006,2.355,2.355,0,0,0-.555,1.628,2.276,2.276,0,0,0,.555,1.6,2.047,2.047,0,0,0,2.91,0" fill="#0b1138"/>
    <path id="Tracé_90" data-name="Tracé 90" d="M199.828,23.625a3.8,3.8,0,0,1-1.552-1.485,4.323,4.323,0,0,1-.555-2.2,4.4,4.4,0,0,1,.547-2.22,3.745,3.745,0,0,1,1.553-1.485,4.917,4.917,0,0,1,2.31-.525,4.836,4.836,0,0,1,2.287.525,3.781,3.781,0,0,1,1.553,1.493,4.672,4.672,0,0,1,0,4.417,3.8,3.8,0,0,1-1.553,1.485,5.279,5.279,0,0,1-4.59,0m3.743-2.085a2.3,2.3,0,0,0,.555-1.605,2.329,2.329,0,0,0-.555-1.62,2.011,2.011,0,0,0-2.9,0,2.329,2.329,0,0,0-.555,1.62,2.3,2.3,0,0,0,.555,1.605,2.011,2.011,0,0,0,2.9,0" fill="#0b1138"/>
    <path id="Tracé_91" data-name="Tracé 91" d="M282.023,21.33h-1.845L279.563,24H277.9l.615-2.67h-2.25L275.648,24h-1.665l.615-2.67h-1.815l.36-1.515h1.8l.48-2.085h-1.815l.345-1.516h1.83l.63-2.714h1.665l-.63,2.714h2.25l.63-2.714h1.665l-.63,2.714h1.845l-.345,1.516H281l-.465,2.085h1.86Zm-3.15-1.515.465-2.085h-2.25l-.48,2.085Z" fill="#0b1138"/>
    <path id="Tracé_92" data-name="Tracé 92" d="M287.131,23.49a5.356,5.356,0,0,1-2.063-2.04,6.153,6.153,0,0,1,0-5.888,5.29,5.29,0,0,1,2.078-2.025,6.091,6.091,0,0,1,2.977-.728,6.305,6.305,0,0,1,2.565.534,5.085,5.085,0,0,1,2,1.522l-1.65,1.319a3.4,3.4,0,0,0-1.3-1.019,3.78,3.78,0,0,0-1.583-.361,3.336,3.336,0,0,0-1.785.473,3.082,3.082,0,0,0-1.17,1.313,4.368,4.368,0,0,0-.4,1.92,4.176,4.176,0,0,0,.42,1.882,3.336,3.336,0,0,0,1.178,1.343,3.094,3.094,0,0,0,1.732.495,4.043,4.043,0,0,0,1.35-.211,2.144,2.144,0,0,0,.9-.539V19.74h-2.325V17.865h4.7v4.274a5.477,5.477,0,0,1-4.665,2.085,5.925,5.925,0,0,1-2.947-.734" fill="#0b1138"/>
    <rect id="Rectangle_73" data-name="Rectangle 73" width="2.415" height="11.1" transform="translate(296.527 12.9)" fill="#0b1138"/>
    <path id="Tracé_93" data-name="Tracé 93" d="M303.758,24V14.88h-3.33V12.9h9.06v1.98h-3.33V24Z" fill="#0b1138"/>
    <path id="Tracé_94" data-name="Tracé 94" d="M376.562,21.33h-1.845L374.1,24h-1.665l.615-2.67H370.8L370.187,24h-1.665l.615-2.67h-1.815l.36-1.515h1.8l.48-2.085h-1.815l.345-1.516h1.83l.63-2.714h1.665l-.63,2.714h2.25l.63-2.714h1.665l-.63,2.714h1.845L377.4,17.73h-1.86l-.465,2.085h1.86Zm-3.15-1.515.465-2.085h-2.25l-.48,2.085Z" fill="#0b1138"/>
    <path id="Tracé_95" data-name="Tracé 95" d="M381.422,12.9l3.78,7.14,3.72-7.14h2.265l.03,11.1h-2.505l-.03-6.645-2.895,5.534h-1.23l-2.895-5.4V24h-2.505V12.9Z" fill="#0b1138"/>
    <path id="Tracé_96" data-name="Tracé 96" d="M396.047,24V20.025L392.132,12.9H394.7l2.565,5,2.565-5h2.55l-3.915,7.125V24Z" fill="#0b1138"/>
    <path id="Tracé_97" data-name="Tracé 97" d="M404.747,23.7a4.9,4.9,0,0,1-1.5-.976l.9-1.619a4.978,4.978,0,0,0,1.23.765,3.71,3.71,0,0,0,1.485.285,2,2,0,0,0,1.275-.323.959.959,0,0,0,.39-.757,1.144,1.144,0,0,0-.15-.615,1.4,1.4,0,0,0-.54-.45,7.155,7.155,0,0,0-1.14-.451l-.78-.239a5.544,5.544,0,0,1-2.047-1.11,2.622,2.622,0,0,1-.758-2.04,3.236,3.236,0,0,1,.5-1.808,3.283,3.283,0,0,1,1.4-1.192,4.881,4.881,0,0,1,2.085-.42,5.191,5.191,0,0,1,1.935.383,4.685,4.685,0,0,1,1.5.892L409.5,15.69a5.388,5.388,0,0,0-1.14-.7,3.127,3.127,0,0,0-1.29-.255,1.618,1.618,0,0,0-1.117.323,1.009,1.009,0,0,0-.353.772,1.1,1.1,0,0,0,.1.487,1.05,1.05,0,0,0,.412.4,4.765,4.765,0,0,0,.945.405l.795.255a5.959,5.959,0,0,1,2.31,1.268,3.2,3.2,0,0,1,.4,3.832,3.3,3.3,0,0,1-1.372,1.214,4.843,4.843,0,0,1-2.22.466,5.305,5.305,0,0,1-2.22-.45" fill="#0b1138"/>
    <path id="Tracé_98" data-name="Tracé 98" d="M421.892,26.475a4.806,4.806,0,0,1-1.665-.27,5.2,5.2,0,0,1-1.38-.764,13.682,13.682,0,0,1-1.455-1.335l-.48-.091a5.563,5.563,0,0,1-2.452-.967,5.087,5.087,0,0,1-1.635-1.942,5.985,5.985,0,0,1-.577-2.656,5.886,5.886,0,0,1,.742-2.977,5.111,5.111,0,0,1,2.085-2.01,7,7,0,0,1,6.157,0,5.124,5.124,0,0,1,2.078,2.01,5.886,5.886,0,0,1,.742,2.977,5.7,5.7,0,0,1-.945,3.3,5.137,5.137,0,0,1-2.58,1.965,1.622,1.622,0,0,0,.585.638,1.6,1.6,0,0,0,.825.2,2.179,2.179,0,0,0,1.635-.779l1.2,1.409a3.594,3.594,0,0,1-2.88,1.29m-6.727-6.09a3.14,3.14,0,0,0,1.208,1.306,3.643,3.643,0,0,0,3.562,0,3.21,3.21,0,0,0,1.207-1.306,4.537,4.537,0,0,0,0-3.877,3.189,3.189,0,0,0-1.207-1.312,3.643,3.643,0,0,0-3.562,0,3.12,3.12,0,0,0-1.208,1.312,4.6,4.6,0,0,0,0,3.877" fill="#0b1138"/>
    <path id="Tracé_99" data-name="Tracé 99" d="M425.731,12.9h2.415V22h4.8v2h-7.215Z" fill="#0b1138"/>
  </g>
</svg>
