<?xml version="1.0" encoding="UTF-8"?>
<svg id="Calque_2" data-name="Calque 2" xmlns="http://www.w3.org/2000/svg" xmlns:xlink="http://www.w3.org/1999/xlink" viewBox="0 0 57.86 35.84">
  <defs>
    <style>
      .cls-1 {
        fill: #fff;
      }

      .cls-2 {
        fill: #8e56cc;
      }

      .cls-3 {
        fill: #a893d1;
      }

      .cls-4 {
        fill: #a588d1;
      }

      .cls-5 {
        fill: #956ace;
      }

      .cls-6 {
        fill: #814fc1;
      }

      .cls-7 {
        filter: url(#drop-shadow-2);
      }

      .cls-8 {
        filter: url(#drop-shadow-1);
      }

      .cls-9 {
        fill: none;
        stroke: #fff;
        stroke-miterlimit: 10;
        stroke-width: 2px;
      }
    </style>
    <filter id="drop-shadow-1" filterUnits="userSpaceOnUse">
      <feOffset dx="1.42" dy="1.42"/>
      <feGaussianBlur result="blur" stdDeviation="0"/>
      <feFlood flood-color="#606060" flood-opacity=".2"/>
      <feComposite in2="blur" operator="in"/>
      <feComposite in="SourceGraphic"/>
    </filter>
    <filter id="drop-shadow-2" filterUnits="userSpaceOnUse">
      <feOffset dx="1.42" dy="1.42"/>
      <feGaussianBlur result="blur-2" stdDeviation="0"/>
      <feFlood flood-color="#606060" flood-opacity=".2"/>
      <feComposite in2="blur-2" operator="in"/>
      <feComposite in="SourceGraphic"/>
    </filter>
  </defs>
  <g id="Calque_1-2" data-name="Calque 1">
    <g>
      <circle class="cls-9" cx="4.68" cy="4.68" r="3.68"/>
      <g class="cls-8">
        <path class="cls-1" d="M43.84,22.58c0,1.48-.24,2.9-.69,4.23-1.76,5.25-6.73,9.03-12.57,9.03-4.41,0-8.31-2.15-10.72-5.46-.91-1.25-1.61-2.67-2.04-4.2,3.29,.41,8.4,.14,14.04-.88,4.77-.86,9-2.09,11.97-3.38,0,.22,.02,.44,.02,.66Z"/>
        <path class="cls-1" d="M57.84,18.42c-.4-2.66-7.14-3.98-16.54-3.65,.37,.51,.71,1.05,1.01,1.61,3.45,.12,5.72,.76,5.92,1.9,.19,1.08-1.5,2.39-4.4,3.65-2.97,1.29-7.2,2.52-11.97,3.38-5.64,1.02-10.76,1.29-14.04,.88-2.21-.28-3.59-.86-3.74-1.73-.17-.93,1.08-2.04,3.31-3.14,.1-1.06,.32-2.07,.66-3.04-9.24,2.49-15.41,5.79-15,8.48,.41,2.68,7.27,4.01,16.82,3.64,3.56-.14,7.48-.51,11.59-1.13,4.23-.64,8.19-1.48,11.7-2.44,9.06-2.47,15.09-5.73,14.68-8.39Z"/>
        <path class="cls-1" d="M43.83,21.92c-2.97,1.29-7.2,2.52-11.97,3.38-5.64,1.02-10.76,1.29-14.04,.88-.32-1.14-.5-2.35-.5-3.6,0-.43,.02-.85,.06-1.27,.1-1.06,.32-2.07,.66-3.04,1.79-5.21,6.73-8.95,12.54-8.95,4.4,0,8.3,2.15,10.72,5.45,.37,.51,.71,1.05,1.01,1.61,.88,1.67,1.42,3.55,1.52,5.54Z"/>
        <path class="cls-1" d="M26.4,19.31c0,2.42,.52,4.68,1.43,6.6-4.01,.5-7.53,.58-10.01,.27-.32-1.14-.5-2.35-.5-3.6,0-.43,.02-.85,.06-1.27,.1-1.06,.32-2.07,.66-3.04,1.75-5.09,6.5-8.77,12.14-8.94-2.3,2.29-3.78,5.92-3.78,9.99Z"/>
        <path class="cls-1" d="M21.54,21.86c0,1.67,.26,3.27,.74,4.76-1.68,.04-3.17-.02-4.41-.17-.32-1.14-.5-2.35-.5-3.6,0-.43,.02-.85,.06-1.27,.1-1.06,.32-2.07,.66-3.04,1.46-4.26,5.04-7.54,9.48-8.59-3.6,2.36-6.03,6.81-6.03,11.92Z"/>
        <path class="cls-1" d="M27.34,31.02c3.5-.57,7-1.13,10.5-1.7"/>
        <path class="cls-1" d="M31.28,30.33c.26,.45,.85,1.33,1.97,1.88,.25,.12,1.4,.65,3.01,.34,1.89-.37,3.15-1.68,3.6-2.19,.7-.8,1.1-1.6,1.31-2.11"/>
        <path class="cls-1" d="M14.85,20.63c-.09-.17-.71-.03-2.41,.53-2.17,.7-3.28,1.07-4.13,1.58-1.05,.64-2.53,1.55-2.51,2.74,0,.56,.34,1.05,.87,1.53,1.77,1.63,4.46,2.05,9.92,2.15,3.26,.06,5.87-.02,5.88-.26,.02-.45-9.35-.42-10.2-3.52-.15-.56-.03-1.23-.01-1.33,.41-2.11,2.76-3.09,2.59-3.43Z"/>
      </g>
      <g class="cls-7">
        <path class="cls-2" d="M42.2,22.57c0,1.3-.21,2.55-.61,3.72-1.55,4.62-5.91,7.94-11.05,7.94-3.87,0-7.31-1.89-9.42-4.8-.8-1.1-1.42-2.35-1.8-3.69,2.89,.36,7.39,.12,12.35-.78,4.19-.76,7.91-1.84,10.52-2.97,0,.19,.01,.39,.01,.58Z"/>
        <path class="cls-4" d="M54.5,18.91c-.35-2.34-6.27-3.5-14.54-3.21,.33,.45,.62,.92,.89,1.41,3.04,.1,5.03,.67,5.21,1.67,.17,.95-1.32,2.1-3.87,3.21-2.61,1.13-6.33,2.21-10.52,2.97-4.96,.9-9.46,1.14-12.35,.78-1.94-.24-3.15-.76-3.29-1.52-.15-.82,.95-1.8,2.91-2.76,.09-.93,.28-1.82,.58-2.67-8.12,2.19-13.55,5.09-13.19,7.45,.36,2.36,6.39,3.52,14.79,3.2,3.13-.12,6.58-.45,10.19-1,3.71-.56,7.2-1.3,10.29-2.15,7.97-2.18,13.26-5.04,12.91-7.38Z"/>
        <path class="cls-5" d="M42.18,21.99c-2.61,1.13-6.33,2.21-10.52,2.97-4.96,.9-9.46,1.14-12.35,.78-.28-1.01-.44-2.07-.44-3.17,0-.38,.02-.75,.05-1.12,.09-.93,.28-1.82,.58-2.67,1.57-4.58,5.92-7.86,11.03-7.86,3.87,0,7.3,1.89,9.42,4.79,.33,.45,.62,.92,.89,1.41,.78,1.47,1.25,3.12,1.34,4.87Z"/>
        <path class="cls-2" d="M26.94,19.64c0,2.13,.46,4.11,1.26,5.8-3.52,.44-6.62,.51-8.8,.23-.28-1.01-.44-2.07-.44-3.17,0-.38,.02-.75,.05-1.12,.09-.93,.28-1.82,.58-2.67,1.54-4.47,5.72-7.71,10.67-7.86-2.02,2.02-3.32,5.2-3.32,8.78Z"/>
        <path class="cls-6" d="M22.54,21.71c0,1.47,.23,2.88,.65,4.18-1.48,.04-2.79-.01-3.87-.15-.28-1.01-.44-2.07-.44-3.17,0-.38,.02-.75,.05-1.12,.09-.93,.28-1.82,.58-2.67,1.29-3.74,4.43-6.63,8.33-7.55-3.17,2.07-5.3,5.99-5.3,10.48Z"/>
        <path class="cls-2" d="M27.69,30c3.08-.5,6.15-.99,9.23-1.49"/>
        <path class="cls-5" d="M31.16,29.39c.23,.39,.75,1.17,1.73,1.65,.22,.11,1.23,.57,2.64,.29,1.66-.33,2.77-1.47,3.16-1.93,.61-.7,.96-1.41,1.15-1.86"/>
        <path class="cls-3" d="M16.71,20.86c-.08-.15-.62-.02-2.12,.46-1.91,.62-2.88,.94-3.63,1.39-.92,.56-2.23,1.36-2.21,2.41,0,.49,.3,.92,.77,1.35,1.55,1.43,3.92,1.8,8.72,1.89,2.87,.05,5.16-.02,5.17-.23,.02-.4-8.22-.37-8.97-3.09-.14-.49-.03-1.08,0-1.17,.36-1.86,2.43-2.71,2.27-3.01Z"/>
      </g>
    </g>
  </g>
</svg>