<?xml version="1.0" encoding="UTF-8"?>
<svg id="Calque_2" data-name="Calque 2" xmlns="http://www.w3.org/2000/svg" xmlns:xlink="http://www.w3.org/1999/xlink" viewBox="0 0 48.7 36.2">
  <defs>
    <style>
      .cls-1 {
        fill: #8e56cc;
      }

      .cls-2 {
        fill: #a893d1;
      }

      .cls-3 {
        fill: #a588d1;
      }

      .cls-4 {
        fill: #956ace;
      }

      .cls-5 {
        fill: #814fc1;
      }

      .cls-6 {
        filter: url(#drop-shadow-1);
      }

      .cls-7 {
        fill: none;
        stroke: #fff;
        stroke-miterlimit: 10;
      }
    </style>
    <filter id="drop-shadow-1" filterUnits="userSpaceOnUse">
      <feOffset dx="1.42" dy="1.42"/>
      <feGaussianBlur result="blur" stdDeviation="0"/>
      <feFlood flood-color="#606060" flood-opacity=".2"/>
      <feComposite in2="blur" operator="in"/>
      <feComposite in="SourceGraphic"/>
    </filter>
  </defs>
  <g id="Calque_1-2" data-name="Calque 1">
    <g>
      <g class="cls-6">
        <path class="cls-1" d="M36.39,24.54c0,1.3-.21,2.55-.61,3.72-1.55,4.62-5.91,7.94-11.05,7.94-3.87,0-7.31-1.89-9.42-4.8-.8-1.1-1.42-2.35-1.8-3.69,2.89,.36,7.39,.12,12.35-.78,4.19-.76,7.91-1.84,10.52-2.97,0,.19,.01,.39,.01,.58Z"/>
        <path class="cls-3" d="M48.69,20.88c-.35-2.34-6.27-3.5-14.54-3.21,.33,.45,.62,.92,.89,1.41,3.04,.1,5.03,.67,5.21,1.67,.17,.95-1.32,2.1-3.87,3.21-2.61,1.13-6.33,2.21-10.52,2.97-4.96,.9-9.46,1.14-12.35,.78-1.94-.24-3.15-.76-3.29-1.52-.15-.82,.95-1.8,2.91-2.76,.09-.93,.28-1.82,.58-2.67C5.58,22.93,.16,25.84,.52,28.2c.36,2.36,6.39,3.52,14.79,3.2,3.13-.12,6.58-.45,10.19-1,3.71-.56,7.2-1.3,10.29-2.15,7.97-2.18,13.26-5.04,12.91-7.38Z"/>
        <path class="cls-4" d="M36.37,23.96c-2.61,1.13-6.33,2.21-10.52,2.97-4.96,.9-9.46,1.14-12.35,.78-.28-1.01-.44-2.07-.44-3.17,0-.38,.02-.75,.05-1.12,.09-.93,.28-1.82,.58-2.67,1.57-4.58,5.92-7.86,11.03-7.86,3.87,0,7.3,1.89,9.42,4.79,.33,.45,.62,.92,.89,1.41,.78,1.47,1.25,3.12,1.34,4.87Z"/>
        <path class="cls-1" d="M21.13,21.61c0,2.13,.46,4.11,1.26,5.8-3.52,.44-6.62,.51-8.8,.23-.28-1.01-.44-2.07-.44-3.17,0-.38,.02-.75,.05-1.12,.09-.93,.28-1.82,.58-2.67,1.54-4.47,5.72-7.71,10.67-7.86-2.02,2.02-3.32,5.2-3.32,8.78Z"/>
        <path class="cls-5" d="M16.73,23.68c0,1.47,.23,2.88,.65,4.18-1.48,.04-2.79-.01-3.87-.15-.28-1.01-.44-2.07-.44-3.17,0-.38,.02-.75,.05-1.12,.09-.93,.28-1.82,.58-2.67,1.29-3.74,4.43-6.63,8.33-7.55-3.17,2.07-5.3,5.99-5.3,10.48Z"/>
        <path class="cls-1" d="M21.88,31.96c3.08-.5,6.15-.99,9.23-1.49"/>
        <path class="cls-4" d="M25.35,31.36c.23,.39,.75,1.17,1.73,1.65,.22,.11,1.23,.57,2.64,.29,1.66-.33,2.77-1.47,3.16-1.93,.61-.7,.96-1.41,1.15-1.86"/>
        <path class="cls-2" d="M10.9,22.83c-.08-.15-.62-.02-2.12,.46-1.91,.62-2.88,.94-3.63,1.39-.92,.56-2.23,1.36-2.21,2.41,0,.49,.3,.92,.77,1.35,1.55,1.43,3.92,1.8,8.72,1.89,2.87,.05,5.16-.02,5.17-.23,.02-.4-8.22-.37-8.97-3.09-.14-.49-.03-1.08,0-1.17,.36-1.86,2.43-2.71,2.27-3.01Z"/>
      </g>
      <circle class="cls-7" cx="4.18" cy="4.18" r="3.68"/>
    </g>
  </g>
</svg>